# xmcd
#
# Track frame offsets:
#	150
#	14009
#	26048
#	40186
#	56239
#	68865
#	84242
#	96259
#	106722
#	122388
#	135986
#	147318
#	160769
#	172320
#	182246
#
# Disc length: 2596 seconds
#
# Revision: 0
# Processed by: cddbd v1.5.2PL0 Copyright (c) Steve Scherf et al.
# Submitted via: audiograbber 1.83.01
#
DISCID=cb0a220f
DTITLE=Chartbuster Karaoke - Essential 8 Disc 1
DYEAR=1900
DGENRE=Karaoke
TTITLE0=Tex Ritter and His Texans - I'm Wastin' My Tears On You
TTITLE1=Bob Wills and His Texas Playboys - Sugar Moon
TTITLE2=Kitty Wells and Red Foley - You And Me 
TTITLE3=Ernest Tubb - Rainbow At Midnight 
TTITLE4=Hank Williams - My Bucket's Got A Hole In It
TTITLE5=Tex Ritter and His Texans - Rye Whiskey
TTITLE6=Lefty Frizzell - Give Me More, More, More (Of Your Kisses)
TTITLE7=Tennessee Ernie Ford  - Kissin' Bug Boogie
TTITLE8=Red Foley - Midnight
TTITLE9=Porter Wagoner - Company's Comin'
TTITLE10=Patsy Cline - Heartaches
TTITLE11=Hank Williams - You Win Again
TTITLE12=Faron Young - If You Ain't Lovin' (You Ain't Livin')
TTITLE13=Webb Pierce - I Ain't Never
TTITLE14=Connie Smith - Run Away Little Tears
EXTD=
EXTT0=
EXTT1=
EXTT2=
EXTT3=
EXTT4=
EXTT5=
EXTT6=
EXTT7=
EXTT8=
EXTT9=
EXTT10=
EXTT11=
EXTT12=
EXTT13=
EXTT14=
PLAYORDER=
